<svg xmlns="http://www.w3.org/2000/svg" width="26" height="31" viewBox="0 0 26 31"><g><g><path d="M23.185 31H2.81a2.81 2.81 0 0 1-2.756-3.365L1.913 10.65c.276-1.395 1.434-2.347 2.768-2.347h1.925l.817-5.308C7.806 1.235 9.34-.001 11.08-.001h3.839a3.756 3.756 0 0 1 3.644 2.937l.827 5.366h1.922c1.334 0 2.493.95 2.755 2.262l1.885 17.154c.153.747-.06 1.598-.595 2.251A2.793 2.793 0 0 1 23.185 31zm-1.872-20.762h-1.625l.484 3.139a.969.969 0 1 1-1.913.295l-.528-3.433-9.466.001-.528 3.432a.971.971 0 0 1-1.103.81.97.97 0 0 1-.808-1.105l.482-3.136H4.683a.88.88 0 0 0-.86.705L1.966 27.928c-.083.44.07.693.169.813a.86.86 0 0 0 .676.321h20.375c.36 0 .579-.202.677-.32a.866.866 0 0 0 .182-.73L22.158 10.86c-.068-.325-.43-.622-.845-.622zm-4.65-6.947c-.17-.76-.908-1.354-1.745-1.354h-3.84c-.837 0-1.576.595-1.755 1.414l-.76 4.953 8.87-.002z"/></g></g></svg>