<svg xmlns="http://www.w3.org/2000/svg" width="9" height="12" viewBox="0 0 9 12"><g><g><path fill="#ea2260" d="M9 5.812v4.781C9 11.37 8.406 12 7.676 12H1.323C.593 12 0 11.369 0 10.593V5.812c0-.775.594-1.406 1.323-1.406h.794V2.479c0-1.367 1.068-2.48 2.382-2.48s2.382 1.113 2.382 2.48v1.927h.795c.73 0 1.324.63 1.324 1.406zM2.999 2.479v1.927h3V2.479c0-.85-.673-1.542-1.5-1.542s-1.5.692-1.5 1.542zm5.119 3.333c0-.258-.198-.469-.442-.469H1.323c-.243 0-.44.21-.44.469v4.781c0 .259.197.47.44.47h6.353c.244 0 .442-.211.442-.47zM5.316 7.57a.88.88 0 0 1-.376.73v1.028c0 .258-.197.468-.441.468s-.441-.21-.441-.468v-1.03a.88.88 0 0 1-.374-.728c0-.479.365-.867.816-.867.45 0 .816.388.816.867z"/></g></g></svg>