<svg xmlns="http://www.w3.org/2000/svg" width="12" height="12" viewBox="0 0 12 12"><g><g><path fill="#ea2260" d="M11.65 10.79c-.353.438-.835 1.04-2.182 1.198-.023.003-.109.012-.252.012-.687 0-3.152-.226-6.039-3.128-2.585-2.6-3.48-4.44-3.09-6.352C.365 1.153 1.112.49 1.26.37c.246-.24.566-.37.905-.37.334 0 .646.129.878.362l1.732 1.742c.49.492.48 1.303-.023 1.809l-.675.678c.293.53.694 1.228 1.416 1.955.724.727 1.42 1.13 1.945 1.423l.674-.678c.248-.25.575-.386.921-.386.334 0 .645.128.878.361l1.733 1.743c.459.463.46 1.211.004 1.78zm-.532-1.253L9.386 7.795a.494.494 0 0 0-.352-.142.555.555 0 0 0-.395.167l-.716.72a.593.593 0 0 1-.452.209.669.669 0 0 1-.322-.086c-.57-.318-1.35-.753-2.18-1.588C4.133 6.236 3.7 5.45 3.384 4.877a.615.615 0 0 1 .066-.712l.012-.014.764-.767c.212-.214.223-.55.023-.751L2.517.891a.49.49 0 0 0-.351-.143.556.556 0 0 0-.396.167l-.02.02-.022.016c-.025.02-.67.526-.912 1.718-.333 1.633.504 3.277 2.887 5.674 2.685 2.7 4.899 2.908 5.513 2.908.108 0 .165-.006.166-.006 1.044-.123 1.357-.513 1.688-.925.177-.221.268-.561.048-.783zM6.937 1.418a.373.373 0 0 1 .412-.329c.808.093 1.712.556 2.358 1.206.653.656 1.114 1.574 1.203 2.395a.374.374 0 0 1-.37.415.373.373 0 0 1-.37-.334c-.07-.65-.458-1.414-.989-1.947-.525-.529-1.278-.918-1.917-.992a.374.374 0 0 1-.327-.414zm-.348 1.566a.372.372 0 0 1 .412-.328c.59.068 1.218.465 1.579.827.364.365.76 1.003.824 1.603a.373.373 0 0 1-.37.414.373.373 0 0 1-.37-.333c-.037-.352-.294-.837-.61-1.155-.314-.315-.792-.573-1.138-.613a.374.374 0 0 1-.327-.415z"/></g></g></svg>