<svg xmlns="http://www.w3.org/2000/svg" width="12" height="13" viewBox="0 0 12 13"><g><g><path fill="#ea2260" d="M.904 10.142v.599h4.32a3.45 3.45 0 0 1 .91-3.764 3.23 3.23 0 0 0-.782-.096H4.19C2.379 6.88.904 8.344.904 10.142zm-.452 1.496A.45.45 0 0 1 0 11.19v-1.048C0 7.85 1.88 5.984 4.19 5.984h1.162c.592 0 1.173.125 1.728.374a3.5 3.5 0 0 1 1.422-.3c1.929 0 3.498 1.557 3.498 3.47C12 11.444 10.43 13 8.502 13a3.503 3.503 0 0 1-2.775-1.362zm7.086-8.886c0 1.518-1.245 2.753-2.774 2.753-1.53 0-2.774-1.235-2.774-2.753S3.234 0 4.764 0s2.774 1.234 2.774 2.752zm-.905 0A1.865 1.865 0 0 0 4.763.897c-1.03 0-1.869.833-1.869 1.855 0 1.023.839 1.855 1.87 1.855 1.03 0 1.869-.832 1.869-1.855zm4.462 6.777c0-1.419-1.163-2.573-2.593-2.573S5.91 8.11 5.91 9.529s1.163 2.573 2.592 2.573c1.43 0 2.593-1.154 2.593-2.573zm-2.14-1.242v.793h.799a.45.45 0 0 1 .452.449.45.45 0 0 1-.452.449h-.8v.793a.45.45 0 0 1-.452.449.45.45 0 0 1-.452-.45v-.792h-.799a.45.45 0 0 1-.452-.45.45.45 0 0 1 .452-.448h.8v-.793a.45.45 0 0 1 .451-.449.45.45 0 0 1 .453.45z"/></g></g></svg>